# xmcd
#
# Track frame offsets:
#	150
#	13556
#	27420
#	40041
#	52255
#	67537
#	80525
#	91081
#	102937
#	114762
#	128116
#	140082
#	152814
#	165041
#	177760
#	190156
#	204668
#	215997
#	229109
#	240596
#	252205
#	263158
#	278336
#	290285
#	302126
#
# Disc length: 4179 seconds
#
# Revision: 0
# Processed by: cddbd v1.5.2PL0 Copyright (c) Steve Scherf et al.
# Submitted via: audiograbber 1.83.01
#
DISCID=4c105119
DTITLE=Crayton,Pee Wee - 1960 Debut Album +15 Bonustracks
DYEAR=2018
DGENRE=Blues
TTITLE0=Texas Hop
TTITLE1=Blues after hours
TTITLE2=Phone call from my baby
TTITLE3=Tired of travelin'
TTITLE4=California women
TTITLE5=Blues in my heart
TTITLE6=Pee Wee's Boogie
TTITLE7=Old fashioned baby
TTITLE8=Blues for my baby
TTITLE9=My everything
TTITLE10=Poppa Stoppa
TTITLE11=Change your way of lovin'
TTITLE12=Central Avenue Blues
TTITLE13=Bounce Pee Wee
TTITLE14=Brand new woman
TTITLE15=Thinkin' of you
TTITLE16=Cool evening
TTITLE17=I love you so
TTITLE18=Good little woman
TTITLE19=Huckle Boogie
TTITLE20=I'm still in love with you
TTITLE21=Louella Brown
TTITLE22=Boogie woogie upstairs
TTITLE23=Please come back
TTITLE24=Rockin' the blues
EXTD=
EXTT0=
EXTT1=
EXTT2=
EXTT3=
EXTT4=
EXTT5=
EXTT6=
EXTT7=
EXTT8=
EXTT9=
EXTT10=
EXTT11=
EXTT12=
EXTT13=
EXTT14=
EXTT15=
EXTT16=
EXTT17=
EXTT18=
EXTT19=
EXTT20=
EXTT21=
EXTT22=
EXTT23=
EXTT24=
PLAYORDER=
